<?xml version="1.0" encoding="UTF-8" standalone="no"?>
<svg
   xmlns:dc="http://purl.org/dc/elements/1.1/"
   xmlns:cc="http://creativecommons.org/ns#"
   xmlns:rdf="http://www.w3.org/1999/02/22-rdf-syntax-ns#"
   xmlns:svg="http://www.w3.org/2000/svg"
   xmlns="http://www.w3.org/2000/svg"
   xmlns:sodipodi="http://sodipodi.sourceforge.net/DTD/sodipodi-0.dtd"
   xmlns:inkscape="http://www.inkscape.org/namespaces/inkscape"
   id="svg2"
   width="1200"
   height="600"
   version="1.1"
   viewBox="0 0"
   sodipodi:docname="graph-cpu.svg"
   inkscape:version="0.92.2 5c3e80d, 2017-08-06">
  <defs
     id="defs7" />
  <sodipodi:namedview
     pagecolor="#ffffff"
     bordercolor="#666666"
     borderopacity="1"
     objecttolerance="10"
     gridtolerance="10"
     guidetolerance="10"
     inkscape:pageopacity="0"
     inkscape:pageshadow="2"
     inkscape:window-width="640"
     inkscape:window-height="480"
     id="namedview5"
     showgrid="false"
     inkscape:zoom="1"
     inkscape:cx="749.00002"
     inkscape:cy="241.20101"
     inkscape:current-layer="g32585"
     inkscape:showpageshadow="false"
     inkscape:snap-global="false" />
  <metadata
     id="metadata8">
    <rdf:RDF>
      <cc:Work
         rdf:about="">
        <dc:format>image/svg+xml</dc:format>
        <dc:type
           rdf:resource="http://purl.org/dc/dcmitype/StillImage" />
        <dc:title></dc:title>
      </cc:Work>
    </rdf:RDF>
  </metadata>
  <g
     id="g32585"
     transform="matrix(1.1949047,0,0,1.9247823,-50.292341,-517.95889)"
     style="stroke-width:0.65939027">
    <path
       style="fill:#39a5dc;fill-opacity:1;fill-rule:nonzero;stroke:none;stroke-width:0.87918693"
       d="m 403.22722,314.81941 c -3.28264,4.10323 -1.1065,15.51338 -2.28613,22.43528 -2.47853,52.08319 -4.1162,104.21517 -5.44637,156.36501 -2.32747,-22.64515 -4.6568,-45.28589 -6.98303,-67.93173 -2.33182,2.94725 -1.91198,9.4708 -1.87614,15.49581 -0.0651,1.26367 -0.0735,2.60083 -0.0672,3.9574 -0.0579,1.07178 -0.15184,2.09547 -0.31324,3.03293 -1.09816,34.38353 -3.32518,68.67186 -5.48736,102.96549 -0.0772,1.14967 -0.1544,2.29918 -0.23124,3.44887 -0.26289,-0.0212 -0.51483,-0.0264 -0.76752,-0.0326 -4.18854,-1.11274 -6.5639,0.74969 -9.56927,3.84266 -0.99761,0.77526 -2.04294,1.64309 -3.1668,2.5596 -0.43739,-0.65218 -0.89925,-1.41412 -1.37923,-2.26231 -1.86707,-4.22147 -4.08019,-8.17762 -6.26308,-12.15776 -0.42802,-0.81639 -0.85121,-1.60666 -1.26442,-2.34185 -5.12123,-11.73979 -8.64441,-24.66977 -11.10102,-37.74592 -3.71423,4.14451 -3.01147,15.17022 -5.02162,21.9802 -1.38449,6.7134 -2.0872,13.86419 -3.46034,20.65673 -1.498,5.90999 -3.54374,11.50271 -6.79444,16.38378 -1.68842,-3.05313 -2.77253,-6.51914 -3.84903,-9.95153 -5.38291,-18.85467 -5.99879,-39.66872 -9.67751,-59.17067 -0.73009,-8.25364 -5.22841,-15.33252 -8.63286,-21.49385 -2.54807,6.02277 -8.6989,-0.50363 -9.91202,-6.42833 -4.1313,-9.30621 -3.20209,-9.78797 -10.01864,-5.15832 -1.69744,-0.74478 -6.32055,8.75129 -7.93093,13.16048 -5.24474,7.53798 -8.75874,8.7717 -7.80303,-3.03683 -1.17373,-20.64839 -3.54146,-41.11987 -5.81209,-61.60509 -3.63154,3.98047 -2.63241,15.2343 -4.46237,22.05192 -2.85894,14.89649 -0.81466,31.45982 -7.57343,44.77277 -1.38567,14.39827 -5.07746,2.00323 -8.27697,-4.59111 -3.52558,-11.78285 -2.9749,7.36868 -6.44676,11.28153 -1.33031,8.58634 -5.09606,3.46656 -8.12117,-0.82277 -0.20548,-0.76299 -0.41965,-1.51912 -0.65271,-2.2597 -3.79177,-3.24797 -8.84588,-14.47716 -9.71853,-5.63163 -0.11883,0.74594 -0.19836,1.71805 -0.25583,2.81777 -1.70809,6.59131 -4.66033,20.71782 -7.89814,7.79223 -0.25953,-2.56406 -0.87481,-4.58167 -1.75642,-6.20796 -1.0041,-3.51778 -2.49609,-6.32098 -6.36804,-6.27969 -5.66086,-4.65722 -5.06017,4.94845 -6.53859,11.11984 -0.18347,0.63213 -0.37478,1.26068 -0.56907,1.88808 -0.22468,0.57401 -0.48482,1.08425 -0.79375,1.50343 -0.16587,1.01159 -0.34103,1.83204 -0.52316,2.51656 -0.1843,0.53372 -0.36984,1.0671 -0.55922,1.59731 -1.34548,2.73999 -2.95469,-1.03303 -4.33447,-5.40607 -0.60802,-2.46764 -1.1773,-4.93309 -2.06309,-7.00987 -0.0541,-0.17966 -0.12363,-0.43314 -0.17385,-0.59198 -1.55402,-3.9069 -8.89133,-13.27888 -9.86283,-11.12637 -1.49624,8.41497 -3.36127,16.68034 -6.02036,24.62326 -3.00641,-7.65407 -4.11604,-17.52477 -6.50088,-24.58675 -3.72634,4.23343 -5.42229,13.57138 -7.18966,20.33075 -5.58588,-6.11247 -9.49401,-13.80543 -15.07141,-18.09974 -1.56615,8.67403 -5.12452,16.86675 -6.21389,25.86329 -3.94711,-8.01302 -5.14375,-21.20835 -13.09522,-23.02987 -4.21302,-1.463 -4.95711,11.28867 -6.93547,16.26642 -1.66844,12.58805 -3.39012,-8.17033 -5.08394,-12.25164 -1.24071,-4.4771 -3.71901,-23.72969 -5.64973,-10.62175 -1.67186,8.85655 -2.8636,19.29649 -6.64847,26.58045 -3.822627,2.69784 -9.019235,5.80821 -13.823381,2.98467 -3.769679,-3.85918 -6.537161,-6.15179 -10.305629,-2.18146 -3.008828,1.51878 -3.751759,4.93633 -3.983509,8.78322 -0.209803,1.90558 -0.295342,3.94287 -0.400155,5.90807 -2.493703,20.69795 -3.915347,41.54943 -5.298771,62.407 -0.05835,-0.0754 -0.111178,-0.1549 -0.168918,-0.23079 -4.398987,-16.86954 -7.973012,-33.97113 -9.836594,-51.60792 -2.653976,-5.73881 -0.356837,-19.70443 -6.618955,-19.25241 -4.914039,1.11189 -8.710684,-3.62695 -12.959114,-6.02934 v 71.80697 c -0.661326,1.4364 -0.796981,3.29058 -0.0016,5.92633 -2.947551,11.5425 5.288529,8.75987 11.307655,8.81841 H 1049.3723 c 0.3232,-3.55552 0.4868,-7.01327 -0.1377,-9.32434 0.5249,-1.2059 0.654,-2.70558 0.1377,-4.50375 v -67.62269 c -5.2706,1.76129 -11.8463,-0.0838 -16.0536,-0.31033 -6.1886,1.37841 -12.5657,6.74265 -17.8315,0.26991 -2.9813,-4.86106 -6.4791,0.39707 -10.2614,0.99229 -4.4627,1.91276 -8.13588,6.62009 -7.99163,13.73812 -3.18796,13.77905 -3.1569,28.63397 -6.32212,42.21186 -1.62837,3.1333 -2.83799,7.39069 -4.38039,11.08463 -2.39288,3.78798 -5.27781,6.5199 -9.69717,5.25482 -5.50386,-4.16538 -8.84943,-0.76071 -14.88943,0.74975 -5.25079,2.12978 -9.78971,-2.95486 -12.90496,-6.68782 -2.92751,3.24395 -9.53352,2.93506 -13.9595,4.20645 -1.87079,-1.60039 -3.32535,-2.61378 -4.60013,-3.12028 -1.43129,-1.60094 -2.47652,-2.65605 -2.84539,-0.95186 -0.33309,0.33362 -0.65427,0.71291 -0.96922,1.10832 -1.56255,0.80448 -3.23727,2.4916 -5.61034,4.97447 -4.6814,2.17587 -10.89597,-0.64811 -14.82545,-2.70825 -4.51978,4.0596 -12.28495,3.84519 -17.38871,-0.70803 -3.49218,-3.15008 -6.44556,0.0943 -10.23837,3.04466 -5.3478,1.15341 -10.77075,-0.87083 -15.17965,-2.20884 -3.79002,2.45497 -9.98061,5.23123 -14.41212,2.47745 -1.60964,-2.07351 -2.98684,-4.46856 -4.43287,-5.87547 -0.79063,-1.13579 -1.62621,-2.25436 -2.56165,-3.50625 -0.55514,1.2967 -1.34333,2.50905 -2.29597,3.63404 -0.002,0.002 -0.004,0.004 -0.007,0.006 -0.12387,0.12641 -0.24349,0.23393 -0.37064,0.38075 -4.59646,3.34188 -11.34988,6.74293 -16.71303,3.30283 -4.90481,-1.04507 -10.09844,-0.51364 -14.77457,2.55699 -5.13771,-1.69052 -8.2581,-4.22067 -12.83612,-0.75627 -5.37994,2.01421 -12.03559,0.96534 -15.87663,-3.58319 -4.54396,4.02221 -12.8992,6.09698 -18.30052,0.4277 -4.2438,-5.81597 -7.89091,1.06767 -13.80534,1.02748 -5.1684,3.14312 -10.61428,-3.01999 -15.22065,0.95056 -6.80733,2.86394 -13.39801,0.0213 -19.02704,-4.84407 -0.43087,-0.71539 -0.84458,-1.45476 -1.21523,-2.24404 -4.42173,-10.42619 -5.1115,-3.16778 -7.81942,3.09159 -1.43116,2.16697 -3.09265,3.64751 -4.82973,1.97154 -2.05186,-2.75928 -3.621,-3.56401 -5.22825,-3.3902 -0.26491,-0.0619 -0.5264,-0.0144 -0.78392,0.15256 -1.87788,0.53588 -3.91505,2.16547 -6.90267,3.42149 -7.03597,2.11856 -13.13181,-1.99574 -19.57642,1.54906 -5.25658,0.97022 -11.86684,-1.74171 -15.71592,-3.99523 -3.66207,5.14705 -9.66634,6.1829 -14.98941,4.1882 -4.89197,-2.2253 -7.92919,-1.77651 -12.536,0.92058 -5.64139,0.54184 -10.74725,-2.41094 -15.28296,-4.28339 -4.0534,1.34141 -10.20257,4.72902 -14.60894,3.47495 -3.50807,-3.96203 -6.23347,-7.46856 -9.47086,-3.458 -3.99164,5.74541 -11.25397,5.07767 -15.68313,1.80072 -4.41502,-2.822 -10.07228,2.45802 -15.78808,2.07062 -5.5128,-0.47291 -9.85124,-1.81865 -14.81721,1.76291 -5.31104,1.1396 -11.15133,-1.69678 -15.25016,-3.3224 -5.74152,6.46861 -15.74293,2.62386 -21.40337,0.073 -5.59225,6.60157 -15.54563,2.38216 -21.40336,0.42899 -5.38992,5.05557 -15.28623,3.72863 -20.06678,-1.57384 -4.82102,4.67541 -15.00071,7.31679 -20.06679,0.44986 -5.6039,1.94233 -14.84359,6.67694 -21.28692,0.67412 -0.074,-0.21632 -0.14129,-0.43906 -0.20173,-0.6676 -0.25547,-3.2648 -0.5247,-6.52854 -0.78882,-9.79246 -3.65053,-48.99183 -8.18407,-97.90216 -9.01973,-147.15164 -1.00216,-32.91935 -3.21277,-65.75322 -4.82645,-98.62865 z m -0.59203,18.82472 c 0.067,1.01081 0.12837,2.02196 0.19352,3.03292 -0.13618,0.22571 -0.25179,0.47973 -0.36572,0.73542 0.0582,-1.25608 0.11345,-2.5123 0.1722,-3.76834 z m 306.6695,230.28172 c 0.17104,0.14093 0.34644,0.32206 0.52807,0.55548 -0.17688,-0.1845 -0.35371,-0.36801 -0.52807,-0.55548 z"
       id="path2869-3"
       inkscape:connector-curvature="0"
       sodipodi:nodetypes="ccccccccccccccccccccccccccccccccccccccccccccccccccccccccccccccccccccccccccccccccccccccccccccccccccccccccccccccccccccccccccccccccccccccccccc" />
    <path
       inkscape:connector-curvature="0"
       id="path4585-7-9"
       d="m 403.22768,362.92134 c -3.29285,3.6354 -1.1752,13.77183 -2.37887,19.92052 -2.44864,41.48152 -4.02481,83.01262 -5.34596,124.55835 -2.32967,-19.0944 -4.66341,-38.18284 -6.99197,-57.2781 -3.31153,3.71913 -1.10986,13.81862 -2.31844,19.97593 -1.11517,29.23478 -3.46881,58.36966 -5.65525,87.51811 -5.64424,-0.40444 -8.84374,2.30425 -13.82118,5.90617 -4.62131,-10.43534 -12.38633,-18.72909 -15.57195,-30.14386 -2.24921,-3.70466 -4.20248,-20.30922 -6.41864,-8.89194 -4.165,14.29969 -4.08045,30.92329 -12.97679,42.82643 -4.40031,-7.0902 -4.69156,-16.68649 -11.45985,-21.70849 -4.34895,-4.22605 -5.56821,-9.9635 -9.36307,-12.71841 -1.92872,-1.61476 -9.11482,1.62054 -10.72792,-6.03431 -3.00768,-3.61175 -3.99094,-9.10378 -7.25158,-6.95454 -4.3544,-2.84716 -6.10906,1.66634 -8.63407,4.63374 -2.44894,5.11373 -6.31189,9.07552 -9.65503,13.43844 -1.46878,-20.51249 -3.73841,-40.91418 -6.54905,-61.24096 -3.64251,3.53694 -2.71569,13.51468 -4.58114,19.56277 -2.36275,13.99526 -2.023,28.63039 -7.70762,41.63611 -1.74992,13.68446 -2.79984,-0.24435 -4.04538,-6.45594 -1.9818,-9.59995 -2.90193,-20.82972 -5.58036,-29.36441 -2.8514,2.92384 -4.0893,16.03172 -7.05831,16.45145 -3.15077,-8.09653 -3.76861,-17.53688 -6.55576,-25.42842 -4.07303,-3.10886 -9.60439,-14.43454 -9.84298,-2.96794 -1.6866,5.66115 -4.71374,19.20121 -8.03013,7.40406 -0.89703,-7.89692 -5.94394,-10.11104 -12.13973,-11.42259 -1.07937,6.8075 -3.43598,13.32791 -6.06894,19.57055 -4.14141,-5.1012 -3.15016,-14.70886 -8.73326,-17.61594 -7.53681,-7.61782 -7.4801,1.45861 -8.72518,8.88094 -2.23293,5.9824 -1.59201,15.60831 -7.24254,18.37156 -5.61865,1.6784 -6.09961,10.9686 -8.27044,16.7206 -1.15501,11.30542 -3.04854,7.1205 -5.14516,-1.44837 -2.52871,-4.87002 -1.79868,-14.36782 -7.98746,-14.09586 -6.74288,-3.27152 -5.22819,9.33443 -8.0266,13.95502 -1.15497,7.57069 -2.14667,16.25918 -6.04432,4.92912 -2.40842,-3.30208 -3.73477,-10.26256 -5.99548,-7.49882 -5.42835,-3.61674 -5.41493,-0.15022 -9.36502,5.714 -2.72036,10.46594 -4.59996,-6.14161 -6.86859,-9.61751 -2.18391,-12.35555 -5.43805,-3.68413 -8.04366,3.2168 -2.82603,4.53974 -6.824777,12.91119 -9.248518,14.63568 -4.975018,-6.00361 -8.297669,-12.89604 -8.927382,-21.24077 -2.126219,-4.65345 -2.03517,-15.52165 -6.386042,-15.64229 -6.818222,-0.69013 -6.870736,6.44512 -7.245187,12.70117 -2.493703,18.44336 -3.915265,37.02347 -5.298689,55.60904 -5.896849,-6.79143 -8.627991,-15.71247 -13.533125,-23.25383 -0.355317,-5.64789 -4.455172,5.83309 -6.694191,9.53468 -1.904772,6.43283 -12.398887,5.2883 -9.359008,14.26503 -2.947551,10.28519 5.289383,7.80631 11.308508,7.85847 332.902114,0 665.804244,0 998.706334,0 0.6926,-6.79085 0.6966,-13.24562 -6.3669,-9.8852 -5.9693,-1.0603 -8.8699,-6.38066 -13.892,-1.25147 -5.196,2.12371 -12.0025,1.23063 -15.8607,-2.4941 -4.4927,4.86278 -9.9653,3.1129 -11.6186,-4.80883 -0.054,-8.4389 -7.48959,-2.89378 -9.05849,-3.11669 -4.45807,5.6539 -7.32457,16.38718 -15.74086,14.24041 -5.50383,-3.71164 -8.85042,-0.67737 -14.89044,0.66856 -5.2508,1.89779 -9.78924,-2.63285 -12.90449,-5.95918 -2.92753,2.89059 -9.53428,2.61533 -13.96031,3.74823 -6.47998,-4.93961 -8.03336,-3.79426 -14.02426,1.79094 -4.68146,1.93885 -10.89575,-0.57695 -14.82525,-2.41268 -4.51977,3.61739 -12.28587,3.42658 -17.38966,-0.63066 -3.49217,-2.80695 -6.44424,0.0837 -10.23704,2.71272 -5.34781,1.02777 -10.77226,-0.77575 -15.18116,-1.96801 -3.79003,2.18755 -9.97936,4.6616 -14.41087,2.20781 -3.32796,-3.82003 -5.65948,-8.90271 -9.66892,-4.77741 -4.59646,2.97784 -11.34956,6.00891 -16.71271,2.94353 -4.90482,-0.93123 -10.09831,-0.45772 -14.77444,2.27842 -5.13771,-1.50638 -8.25718,-3.76082 -12.8352,-0.67381 -5.37996,1.79479 -12.03609,0.86014 -15.87713,-3.19289 -4.54397,3.58406 -12.89855,5.43241 -18.29986,0.38069 -4.24381,-5.18244 -7.8921,0.9522 -13.80653,0.9164 -5.16839,2.80073 -10.61396,-2.69174 -15.22033,0.84631 -8.73971,3.27638 -17.12929,-1.81479 -23.57425,-8.36284 -0.68059,-5.08634 -4.73828,10.49441 -9.31658,6.55835 -4.74268,-5.68307 -6.91106,-2.08505 -12.91529,0.16422 -7.03598,1.88779 -13.13213,-1.77847 -19.57675,1.3802 -5.25656,0.86454 -11.8669,-1.55258 -15.71599,-3.56061 -3.66205,4.58637 -9.6666,5.50964 -14.98967,3.73223 -4.89197,-1.9829 -7.92831,-1.58228 -12.53511,0.82102 -5.6414,0.48281 -10.74737,-2.14899 -15.28308,-3.81748 -4.0534,1.1953 -10.20254,4.21455 -14.60889,3.09708 -3.50809,-3.53045 -6.2335,-6.65513 -9.4709,-3.08144 -3.99164,5.11957 -11.25357,4.52462 -15.68273,1.60463 -4.41502,-2.5146 -10.07283,2.19027 -15.78864,1.84509 -5.51278,-0.42141 -9.8508,-1.62052 -14.81677,1.5709 -5.31103,1.01546 -11.15095,-1.51239 -15.24977,-2.96091 -5.74151,5.76398 -15.74446,2.33788 -21.4049,0.065 -5.59225,5.88247 -15.54523,2.12282 -21.40296,0.3824 -5.38992,4.50487 -15.28594,3.32268 -20.06649,-1.4022 -4.82102,4.16614 -15.00043,6.51928 -20.06651,0.40035 -5.64952,1.74485 -14.99665,6.02453 -21.44606,0.47408 -3.89038,-44.39651 -8.979,-88.68497 -9.99786,-133.33565 -1.02764,-25.3398 -3.14,-50.60523 -4.67967,-75.90882 z"
       style="color:#000000;font-style:normal;font-variant:normal;font-weight:normal;font-stretch:normal;font-size:medium;line-height:normal;font-family:sans-serif;font-variant-ligatures:normal;font-variant-position:normal;font-variant-caps:normal;font-variant-numeric:normal;font-variant-alternates:normal;font-feature-settings:normal;text-indent:0;text-align:start;text-decoration:none;text-decoration-line:none;text-decoration-style:solid;text-decoration-color:#000000;letter-spacing:normal;word-spacing:normal;text-transform:none;writing-mode:lr-tb;direction:ltr;text-orientation:mixed;dominant-baseline:auto;baseline-shift:baseline;text-anchor:start;white-space:normal;shape-padding:0;clip-rule:nonzero;display:inline;overflow:visible;visibility:visible;opacity:1;isolation:auto;mix-blend-mode:normal;color-interpolation:sRGB;color-interpolation-filters:linearRGB;solid-color:#000000;solid-opacity:1;vector-effect:none;fill:#00659c;fill-opacity:1;fill-rule:nonzero;stroke:#39a5dc;stroke-width:2.63756132;stroke-linecap:square;stroke-linejoin:round;stroke-miterlimit:4;stroke-dasharray:none;stroke-dashoffset:0;stroke-opacity:1;paint-order:markers stroke fill;color-rendering:auto;image-rendering:auto;shape-rendering:auto;text-rendering:auto;enable-background:accumulate" />
  </g>
</svg>
