<?xml version="1.0" encoding="UTF-8" standalone="no"?>
<svg
   xmlns:dc="http://purl.org/dc/elements/1.1/"
   xmlns:cc="http://creativecommons.org/ns#"
   xmlns:rdf="http://www.w3.org/1999/02/22-rdf-syntax-ns#"
   xmlns:svg="http://www.w3.org/2000/svg"
   xmlns="http://www.w3.org/2000/svg"
   xmlns:sodipodi="http://sodipodi.sourceforge.net/DTD/sodipodi-0.dtd"
   xmlns:inkscape="http://www.inkscape.org/namespaces/inkscape"
   sodipodi:docname="graph-network.svg"
   viewBox="0 0"
   version="1.1"
   height="600"
   width="1200"
   id="svg2"
   inkscape:version="0.92.2 5c3e80d, 2017-08-06">
  <sodipodi:namedview
     inkscape:current-layer="svg2"
     inkscape:cy="178.26636"
     inkscape:cx="606.78399"
     inkscape:zoom="1.3266667"
     showgrid="false"
     id="namedview5"
     inkscape:window-height="480"
     inkscape:window-width="640"
     inkscape:pageshadow="2"
     inkscape:pageopacity="0"
     guidetolerance="10"
     gridtolerance="10"
     objecttolerance="10"
     borderopacity="1"
     bordercolor="#666666"
     pagecolor="#ffffff" />
  <defs
     id="defs7" />
  <metadata
     id="metadata8">
    <rdf:RDF>
      <cc:Work
         rdf:about="">
        <dc:format>image/svg+xml</dc:format>
        <dc:type
           rdf:resource="http://purl.org/dc/dcmitype/StillImage" />
        <dc:title />
      </cc:Work>
    </rdf:RDF>
  </metadata>
  <path
     style="fill:#f5c12e;stroke:none;stroke-width:1;paint-order:stroke markers fill"
     d="M 118.50977 -53.138672 L 100.75781 607.80469 L 96.136719 633.95117 L 89.457031 682.17578 L 86.576172 691.57422 L 79.880859 684.89648 L 67.355469 637.86719 L 60.175781 719.6875 L 51.861328 661.80273 L 44.896484 187.17578 L 38.755859 500.3418 L 32.017578 406.61133 L 24.794922 473.82227 L 11.962891 333.71289 L 5.7558594 568.88867 L 1.2949219 581.98438 L -0.76367188 551.75 L -16.574219 630.42383 L -21.091797 818.53906 L 1.2207031 817.94922 L 273.26758 824.08789 L 273.36523 832.45898 L 490.16016 828.98438 L 644.1582 832.45898 L 644.20703 826.51367 L 1178.4844 817.94922 L 1209.8965 818.53906 L 1203.5352 630.42383 L 1181.2793 551.75 L 1178.3789 581.98438 L 1172.0996 568.88867 L 1163.3633 333.71289 L 1145.2988 473.82227 L 1135.1309 406.61133 L 1125.6445 500.3418 L 1116.998 187.17578 L 1107.1934 661.80273 L 1095.4883 719.6875 L 1085.3809 637.86719 L 1067.748 684.89648 L 1058.3223 691.57422 L 1054.2656 682.17578 L 1044.8633 633.95117 L 1038.3594 607.80469 L 1013.3672 -53.138672 L 990.94922 589.44531 L 972.62695 200.83008 L 962.01953 606.37695 L 952.39062 404.59375 L 943.08594 584.4043 L 919.94141 621.19531 L 893.67773 241.56055 L 887.9082 714.57617 L 880.06445 650.16797 L 868.59375 546.49023 L 846.42578 514.17383 L 835.50195 535.53906 L 827.37109 156.54492 L 817.12695 554.15039 L 799.62305 395.00781 L 790.63477 616.375 L 782.08008 577.40234 L 775.28711 336.64062 L 771.83203 579.80859 L 760.56641 530.99023 L 732.53125 694.61719 L 704.05664 617.86328 L 694.00977 617.47461 L 685.07617 522.48633 L 666.07227 616.36133 L 646.53906 702.50977 L 639.74805 685.21875 L 638.0957 652.28516 L 625.08594 401.9043 L 610.19531 211.68164 L 604.74023 384.21289 L 600.38867 294.51562 L 599.94141 217.4668 L 599.02539 266.41406 L 591.26367 106.37305 L 582.67969 509.6582 L 577.02539 351.12109 L 571.4375 550.21289 L 564.82812 174.92578 L 555.13672 555.0293 L 549.54492 524.82422 L 542.1582 3.6328125 L 534.86328 526.38086 L 533.16406 466.98242 L 528.63281 544.19336 L 523.02344 658.49023 L 514.93555 611.51953 L 508.97656 539.07812 L 505.96289 623.83203 L 500.81836 141.2793 L 497.14648 681.7832 L 490.16211 676.02344 L 480.32617 681.7832 L 475.1582 141.2793 L 467.91602 623.83203 L 463.67383 539.07812 L 458.9375 579.98047 L 453.22461 3.6328125 L 446.75195 646.72266 L 443.89844 658.49023 L 436.00195 544.19336 L 429.62109 466.98242 L 425.38672 572.11523 L 418.34375 106.37305 L 403.52734 536.4668 L 398.68945 555.0293 L 385.04688 174.92578 L 375.74219 550.21289 L 367.87695 351.12109 L 358.45703 538.70703 L 348.16797 190.51367 L 338.84961 351.55859 L 337.22852 278.77734 L 335.61523 217.4668 L 333.84766 433.27344 L 332.23242 459.98047 L 321.17969 211.68164 L 300.21484 401.9043 L 289.73047 545.24414 L 287.625 336.64062 L 282.80078 577.40234 L 276.72266 616.375 L 270.33984 395.00781 L 257.90625 554.15039 L 250.62891 156.54492 L 244.85352 535.53906 L 237.09375 514.17383 L 221.34766 546.49023 L 213.19922 650.16797 L 207.62695 714.57617 L 203.5293 241.56055 L 184.87305 621.19531 L 168.43359 584.4043 L 161.82422 404.59375 L 154.98242 606.37695 L 147.44922 200.83008 L 134.43359 589.44531 L 118.50977 -53.138672 z "
     id="path1203" />
</svg>
