<?xml version="1.0" encoding="UTF-8" standalone="no"?>
<svg
   xmlns:dc="http://purl.org/dc/elements/1.1/"
   xmlns:cc="http://creativecommons.org/ns#"
   xmlns:rdf="http://www.w3.org/1999/02/22-rdf-syntax-ns#"
   xmlns:svg="http://www.w3.org/2000/svg"
   xmlns="http://www.w3.org/2000/svg"
   xmlns:sodipodi="http://sodipodi.sourceforge.net/DTD/sodipodi-0.dtd"
   xmlns:inkscape="http://www.inkscape.org/namespaces/inkscape"
   id="svg2"
   width="600"
   height="1200"
   version="1.1"
   viewBox="0 0"
   sodipodi:docname="graph-cpu (copy).svg"
   inkscape:version="0.92.2 2405546, 2018-03-11">
  <defs
     id="defs7" />
  <sodipodi:namedview
     pagecolor="#ffffff"
     bordercolor="#666666"
     borderopacity="1"
     objecttolerance="10"
     gridtolerance="10"
     guidetolerance="10"
     inkscape:pageopacity="0"
     inkscape:pageshadow="2"
     inkscape:window-width="640"
     inkscape:window-height="480"
     id="namedview5"
     showgrid="false"
     inkscape:zoom="1"
     inkscape:cx="610.50002"
     inkscape:cy="228.20101"
     inkscape:current-layer="g32585"
     inkscape:showpageshadow="false"
     inkscape:snap-global="false" />
  <metadata
     id="metadata8">
    <rdf:RDF>
      <cc:Work
         rdf:about="">
        <dc:format>image/svg+xml</dc:format>
        <dc:type
           rdf:resource="http://purl.org/dc/dcmitype/StillImage" />
        <dc:title></dc:title>
      </cc:Work>
    </rdf:RDF>
  </metadata>
  <g
     id="g32585"
     transform="matrix(1.1949047,0,0,1.9247823,-50.292341,82.04111)"
     style="stroke-width:0.65939027">
    <path
       style="fill:#39a5dc;fill-opacity:1;fill-rule:nonzero;stroke:none;stroke-width:0.87918693"
       d="m 471.41112,356.62868 c -6.60958,2.03787 -24.98934,0.68692 -36.13931,1.41923 -83.8969,1.53867 -167.87239,2.55534 -251.87666,3.38111 36.47738,1.44489 72.94765,2.89094 109.42613,4.33506 -4.7475,1.4476 -15.2558,1.18696 -24.96104,1.16471 -2.03555,0.0404 -4.18948,0.0456 -6.37468,0.0417 -1.72645,0.0359 -3.37543,0.0943 -4.88552,0.19446 -55.38584,0.68173 -110.61834,2.06427 -165.859376,3.40655 -1.85191,0.0479 -3.70357,0.0958 -5.55552,0.14355 0.0342,0.16321 0.0425,0.31961 0.0525,0.47648 1.79243,2.60025 -1.20762,4.07487 -6.189848,5.9406 -1.24881,0.61932 -2.64673,1.26826 -4.12307,1.96595 1.05055,0.27153 2.2779,0.55826 3.64419,0.85623 6.800048,1.15907 13.172706,2.53298 19.584013,3.88812 1.315064,0.26571 2.588051,0.52843 3.772311,0.78495 18.91075,3.17926 39.73868,5.36645 60.80207,6.89151 -6.67608,2.30579 -24.43657,1.86952 -35.40625,3.11742 -10.81412,0.85949 -22.33279,1.29574 -33.274378,2.14818 -9.519958,0.92996 -18.528846,2.19995 -26.391394,4.21799 4.91806,1.04817 10.501188,1.72118 16.030166,2.38948 30.371566,3.34171 63.899356,3.72404 95.313586,6.00779 13.29517,0.45324 24.69801,3.2458 34.62283,5.35928 -9.70163,1.58184 0.81126,5.40028 10.35492,6.15338 14.99067,2.56471 15.7667,1.98786 8.30915,6.21957 1.19971,1.05378 -14.0968,3.9238 -21.19923,4.92353 -12.14237,3.25593 -14.12968,5.43742 4.8918,4.84412 33.26094,0.72865 66.23691,2.19853 99.23501,3.60814 -6.41184,2.25446 -24.53979,1.6342 -35.52178,2.77024 -23.99564,1.77483 -50.67626,0.50574 -72.12109,4.70158 -23.1931,0.86023 -3.22686,3.15209 7.39547,5.13835 18.98011,2.18868 -11.86965,1.84681 -18.17257,4.00214 -13.83109,0.82586 -5.58402,3.16364 1.32534,5.04163 1.22904,0.12756 2.44704,0.26052 3.63998,0.4052 5.23191,2.35393 23.32017,5.49152 9.07157,6.03326 -1.20158,0.0738 -2.76748,0.12314 -4.53893,0.15882 -10.61745,1.06038 -33.37278,2.89313 -12.55192,4.90317 4.13025,0.16111 7.38027,0.54308 9.99993,1.09038 5.66653,0.62335 10.182,1.54957 10.11549,3.95328 7.50196,3.51426 -7.97109,3.14135 -17.91212,4.05916 -1.01825,0.11389 -2.03073,0.23266 -3.04137,0.35327 -0.92463,0.13949 -1.74653,0.30098 -2.42176,0.49276 -1.62949,0.10298 -2.95109,0.21172 -4.05374,0.32478 -0.85973,0.11442 -1.71891,0.2296 -2.57298,0.34717 -4.41365,0.83527 1.66403,1.83427 8.70823,2.69083 3.97494,0.37746 7.94634,0.73087 11.29167,1.28077 0.2894,0.0336 0.69772,0.0768 0.95358,0.10793 6.29333,0.96473 21.38995,5.51973 17.92263,6.12284 -13.55504,0.92887 -26.8691,2.08668 -39.66376,3.73744 12.32937,1.86638 28.22934,2.55524 39.60495,4.03575 -6.81931,2.31331 -21.86111,3.36615 -32.74928,4.46334 9.84612,3.46771 22.23813,5.89388 29.15552,9.35633 -13.97235,0.97226 -27.16939,3.1813 -41.66124,3.85758 12.90758,2.45036 34.16294,3.19324 37.09709,8.12951 2.35664,2.61544 -18.18407,3.07737 -26.20235,4.30554 -20.27715,1.03577 13.16097,2.10459 19.73524,3.15611 7.21183,0.77023 38.22438,2.30876 17.10978,3.50735 -14.26635,1.03789 -31.08326,1.77772 -42.81645,4.12737 -4.34575,2.37309 -9.35601,5.59914 -4.80778,8.58155 6.21646,2.34022 9.90946,4.05827 3.51395,6.39774 -2.44649,1.86788 -7.95156,2.32909 -14.14823,2.47296 -3.06955,0.13025 -6.35127,0.18335 -9.51686,0.24842 -33.34078,1.54809 -66.928856,2.43064 -100.526748,3.28947 0.12146,0.0362 0.24952,0.069 0.37177,0.10487 27.173862,2.73089 54.721528,4.94964 83.131308,6.10655 9.24422,1.64759 31.74039,0.22153 31.01226,4.10905 -1.79106,3.05064 5.84238,5.40759 9.71221,8.04502 H 65.41209 c -2.31379,0.41055 -5.30055,0.49476 -9.546288,9.9e-4 -18.592936,1.82984 -14.110608,-3.28312 -14.204908,-7.01979 V -44.498154 c 5.72732,-0.20064 11.297148,-0.30221 15.019878,0.0855 1.942488,-0.32586 4.358218,-0.406 7.254748,-0.0855 h 108.92832 c -2.83713,3.27199 0.13499,7.35418 0.49989,9.96607 -2.22038,3.84188 -10.86123,7.80079 -0.43478,11.0698 7.83031,1.85079 -0.63961,4.02222 -1.59841,6.37027 -3.08112,2.77045 -10.6638,5.05076 -22.1297,4.9612 -22.19564,1.97909 -46.12432,1.95981 -67.995914,3.9247799 -5.0472,1.01089 -11.905108,1.76182 -17.855396,2.71934 -6.101768,1.4855 -10.502418,3.27647 -8.464588,6.02 6.709688,3.4168 1.22537,5.49373 -1.20772,9.24336 -3.4307,3.2596901 4.759758,6.0774501 10.772908,8.0114001 -5.22544,1.8174 -4.72787,5.91841 -6.775858,8.66606 2.577948,1.16138 4.210338,2.06437 5.026228,2.85576 2.57883,0.88854 4.278428,1.53742 1.53328,1.76641 -0.53741,0.20679 -1.14838,0.40618 -1.78531,0.6017 -1.29588,0.97003 -4.01353,2.00969 -8.012998,3.48289 -3.50495,2.90622 1.04399,6.76422 4.362508,9.20364 -6.539298,2.80588 -6.193918,7.6265 1.14052,10.79491 5.07422,2.16795 -0.15191,4.00141 -4.904418,6.35598 -1.85794,3.31992 1.40276,6.68648 3.558058,9.42353 -3.954528,2.35284 -8.426598,6.19596 -3.990738,8.94704 3.34006,0.99926 7.198068,1.85423 9.464348,2.75193 1.82956,0.49082 3.631378,1.00955 5.647958,1.59027 -2.08876,0.34463 -4.041638,0.83394 -5.853808,1.42534 -0.003,0.001 -0.006,0.002 -0.01,0.004 -0.20363,0.0769 -0.37682,0.15116 -0.61332,0.23009 -5.383188,2.85349 -10.861678,7.04601 -5.320278,10.37545 1.683418,3.04491 0.827378,6.269114 -4.11887,9.172054 2.72314,3.18949 6.798758,5.12663 1.21822,7.96867 -3.24454,3.33986 -1.55499,7.47169 5.771888,9.85621 -6.479068,2.82089 -9.821158,8.00782 -0.68895,11.36096 9.368508,2.63455 -1.71983,4.89867 -1.65509,8.57035 -5.063008,3.20854 4.86468,6.58935 -1.531178,9.44898 -4.61331,4.22599 -0.0343,8.31748 7.802948,11.81199 1.15236,0.26748 2.343358,0.52431 3.614748,0.75441 16.794766,2.74501 5.10274,3.17322 -4.980008,4.8543 -3.49061,0.88846 -5.875498,1.91991 -3.1758,2.99829 4.44471,1.2738 5.74099,2.24792 5.46101,3.2457 0.0997,0.16446 0.0232,0.32679 -0.24574,0.48666 -0.86321,1.16578 -3.4882,2.43046 -5.51142,4.28517 -3.412628,4.36793 3.21478,8.15223 -2.495268,12.15304 -1.56285,3.26329 2.805588,7.36694 6.435618,9.75645 -8.290998,2.27341 -9.959568,6.00086 -6.746458,9.30542 3.584568,3.03693 2.861648,4.92244 -1.48289,7.78235 -0.87281,3.50217 3.883598,6.67189 6.899788,9.48766 -2.16078,2.51635 -7.617618,6.33375 -5.597538,9.06923 6.382138,2.17781 12.030546,3.86973 5.570238,5.87951 -9.254848,2.47801 -8.179238,6.98646 -2.90065,9.73608 4.54575,2.74085 -3.959438,6.25287 -3.335408,9.80124 0.76178,3.42235 2.929528,6.11565 -2.83974,9.19852 -1.83569,3.2971 2.73322,6.92275 5.351808,9.4673 -10.419796,3.56434 -4.226578,9.77321 -0.11759,13.28721 -10.633966,3.47167 -3.837238,9.65073 -0.691028,13.28721 -8.143638,3.34606 -6.00617,9.48969 2.535178,12.45745 -7.531258,2.99289 -11.786066,9.31244 -0.72464,12.45746 -3.128758,3.4789 -10.755376,9.2149 -1.08589,13.21492 0.34845,0.0459 0.70725,0.0877 1.07538,0.12524 5.25903,0.15859 10.516338,0.32573 15.773936,0.4897 78.917254,2.26624 157.703234,5.08067 237.035534,5.59944 53.02731,0.62214 105.91692,1.99449 158.87349,2.99626 z m -30.32333,0.36753 c -1.62823,-0.0416 -3.25702,-0.0797 -4.8855,-0.12013 -0.36358,0.0845 -0.77276,0.15631 -1.18463,0.22704 2.02332,-0.0361 4.04687,-0.0704 6.07013,-0.10691 z M 70.144258,166.61581 c -0.22701,-0.10618 -0.51878,-0.21507 -0.89478,-0.32782 0.2972,0.1098 0.5928,0.21958 0.89478,0.32782 z"
       id="path2869-3"
       inkscape:connector-curvature="0"
       sodipodi:nodetypes="ccccccccccccccccccccccccccccccccccccccccccccccccccccccccccccccccccccccccccccccccccccccccccccccccccccccccccccccccccccccccccccccccccccccccccc" />
  </g>
</svg>
