<?xml version="1.0" encoding="UTF-8"?>
<svg id="svg2" width="1200" height="600" version="1.1" viewBox="0 0" xmlns="http://www.w3.org/2000/svg" xmlns:cc="http://creativecommons.org/ns#" xmlns:dc="http://purl.org/dc/elements/1.1/" xmlns:rdf="http://www.w3.org/1999/02/22-rdf-syntax-ns#">
 <metadata id="metadata8">
  <rdf:RDF>
   <cc:Work rdf:about="">
    <dc:format>image/svg+xml</dc:format>
    <dc:type rdf:resource="http://purl.org/dc/dcmitype/StillImage"/>
    <dc:title/>
   </cc:Work>
  </rdf:RDF>
 </metadata>
 <path id="path1203" d="m1200 494l-0.8152 0.02552-11.31-0.3719-11.54-13.41-23.86-34.99-13.43-20.04-12.53 31.23-11.42 29.68-12.95 14.93-15.46 14.93-13.35-3.192-23.29-2.805h-12.45l-5.358-5.178-12.42-11.49-8.591-6.702-33.01 19.71-29.61 9.96-24.2-8.738-14.01-6.886-12.72 5.745-12.29 5.745-30.57-32.93-34.69-86.77-7.62-16.92-10.36 75.65-15.15 111.6-29.28 13.64-14.43-1.608-10.74-1.59-13.53-13.88-23.12-41.41-11.87-30.46-11.3 41.95-8.972 38.1-4.564 10.74-14.88-2.991-37.03-3.624-37.61 3.332-13.27 3.241-11.8-2.997-25.1-5.003-25.8 1.116-12.5 3.124-22.87-7.082-37.64-7.26-16.22-0.9588-11.77-13.62-11.06-12.88-13.27 21.34-12.54 21.38-13.27 4.742-25.11 4.788-30.3-12.24-12.99-13.49-6.826-19.55-9.565-27.13-5.604-13.02-11.08 11.49-15.04 8.556-10.43-64.16-8.427-55.43-6.202-40.11-9.584-5.083-25.07-5.181-18.02-1.089-12.29-20.07-10.39-17.23-12.44-2.59-13.59-5.782-12.31-151.3-2.14-28.09-2.131-26.81-2.334-31.92-2.133-24.65-14.6 251.8-27.69 132.3-36.25 70.25v102.7l3.047 3.02h1194l3.048-3.02z" fill="#7dc3e8" style="paint-order:stroke markers fill"/>
</svg>
